<?xml version="1.0" standalone="no"?>
<!DOCTYPE svg PUBLIC "-//W3C//DTD SVG 20010904//EN"
 "http://www.w3.org/TR/2001/REC-SVG-20010904/DTD/svg10.dtd">
<svg version="1.0" xmlns="http://www.w3.org/2000/svg"
 width="1000.000000pt" height="1000.000000pt" viewBox="0 0 1000.000000 1000.000000"
 preserveAspectRatio="xMidYMid meet">
<metadata>
Created by potrace 1.14, written by Peter Selinger 2001-2017
</metadata>
<g transform="translate(0.000000,1000.000000) scale(0.100000,-0.100000)"
fill="#000000" stroke="none">
<path d="M3449 7364 c-7 -9 -16 -11 -23 -6 -11 9 -28 8 -93 -3 -82 -13 -100
-16 -128 -19 -16 -3 -41 -7 -55 -9 -68 -15 -139 -28 -170 -33 -45 -8 -65 -12
-65 -14 0 -4 -42 -11 -62 -11 -12 0 -24 -3 -28 -8 -3 -5 -14 -7 -25 -4 -11 3
-20 1 -20 -4 0 -6 -12 -9 -27 -8 -16 1 -32 -1 -38 -5 -5 -4 -41 -13 -80 -21
-83 -16 -84 -16 -87 -19 -2 -1 -14 -3 -28 -5 -14 -2 -36 -6 -50 -10 -14 -4
-33 -7 -42 -7 -10 1 -18 -2 -18 -6 0 -4 -8 -8 -17 -9 -10 0 -34 -4 -53 -8 -19
-3 -44 -8 -55 -10 -11 -2 -20 -4 -20 -5 0 -1 -7 -3 -15 -5 -8 -2 -28 -6 -45
-10 -16 -4 -44 -8 -61 -9 -17 -2 -35 -5 -41 -9 -5 -3 -23 -9 -39 -12 -16 -2
-42 -7 -59 -10 -16 -3 -43 -9 -60 -14 -16 -4 -38 -7 -47 -5 -10 1 -18 -1 -18
-4 0 -6 -16 -9 -105 -17 -16 -1 -30 -3 -30 -5 0 -1 -26 -3 -58 -4 -31 0 -57 1
-57 4 0 3 -57 6 -127 8 -134 4 -147 8 -140 49 2 12 0 20 -4 17 -5 -3 -9 -1 -9
5 0 5 -4 20 -9 33 -5 13 -9 27 -9 32 0 5 -4 12 -9 15 -5 3 -17 25 -27 49 -11
23 -23 42 -28 42 -5 0 -7 3 -4 8 2 4 -9 15 -25 24 -16 10 -29 13 -29 8 0 -4
-9 -6 -20 -3 -21 5 -103 -28 -115 -47 -3 -6 -10 -8 -14 -5 -10 5 -81 -69 -81
-85 0 -5 -4 -10 -8 -10 -5 0 -22 -31 -37 -70 -15 -38 -32 -70 -36 -70 -5 0 -6
-7 -3 -15 4 -8 1 -15 -6 -15 -6 0 -9 -4 -6 -8 8 -13 -117 -137 -221 -220 -12
-9 -43 -35 -69 -57 -27 -22 -52 -39 -56 -37 -4 1 -8 -2 -8 -6 0 -5 -19 -22
-42 -39 -59 -43 -111 -92 -134 -128 -26 -40 -44 -95 -32 -95 7 0 7 -4 1 -12
-6 -7 -10 -63 -10 -124 0 -110 -1 -112 -34 -160 -38 -55 -55 -82 -65 -104 -4
-8 -14 -23 -22 -32 -8 -10 -11 -18 -6 -18 5 0 3 -4 -4 -8 -23 -15 -91 -166
-78 -174 8 -6 7 -8 -2 -8 -7 0 -11 -4 -7 -9 3 -5 1 -12 -5 -16 -6 -4 -8 -10
-5 -15 3 -5 0 -14 -7 -22 -7 -7 -13 -24 -14 -38 0 -14 -4 -35 -8 -47 -5 -16
-1 -27 14 -40 11 -10 22 -16 23 -14 1 2 13 -2 27 -9 14 -8 32 -15 40 -17 8 -1
26 -4 40 -7 14 -2 41 -7 60 -11 19 -3 55 -8 80 -10 25 -2 45 -5 45 -5 0 -1 16
-3 35 -6 39 -4 100 12 100 27 0 6 4 8 9 5 7 -5 8 -41 1 -41 -1 0 -3 -20 -5
-45 -3 -43 -1 -47 32 -70 37 -25 93 -77 93 -86 0 -17 70 -74 95 -78 17 -2 30
-5 30 -6 0 -2 36 -10 58 -12 9 -1 17 -6 17 -11 0 -4 5 -5 10 -2 6 3 10 1 10
-6 0 -7 3 -10 6 -6 4 3 13 0 21 -8 20 -21 32 -19 30 5 -1 11 -4 20 -7 20 -6 0
-31 64 -31 77 1 9 41 13 41 4 0 -3 20 -7 45 -7 47 -2 52 4 34 37 -8 16 -7 25
7 40 9 10 21 19 26 19 15 0 101 61 128 91 45 50 60 69 60 77 0 9 36 44 59 57
9 5 12 4 7 -3 -5 -9 0 -9 18 -2 16 6 27 6 31 -1 4 -5 10 -7 14 -5 4 3 23 -8
43 -24 19 -16 47 -31 62 -34 15 -3 48 -16 73 -30 25 -14 52 -26 59 -26 8 0 14
-4 14 -9 0 -5 11 -12 25 -15 17 -4 25 -12 23 -23 -4 -23 49 -53 61 -35 4 8 10
13 12 12 2 -1 22 8 44 21 21 13 44 24 50 26 5 1 19 4 30 6 63 15 84 11 109
-16 14 -15 23 -27 20 -27 -2 0 7 -18 21 -40 14 -22 25 -44 25 -50 0 -5 4 -10
8 -10 10 0 65 -119 66 -145 1 -11 6 -23 11 -27 6 -5 5 -8 -3 -8 -10 0 -10 -5
-2 -21 7 -11 14 -33 16 -47 3 -15 7 -34 11 -42 3 -8 7 -33 8 -55 1 -22 7 -49
12 -60 12 -21 10 -142 -2 -210 -4 -22 -8 -53 -9 -70 -1 -16 -5 -36 -9 -42 -5
-7 -6 -17 -3 -21 3 -5 0 -19 -7 -33 -7 -13 -12 -36 -11 -51 1 -16 -2 -28 -5
-28 -4 0 -7 -10 -8 -22 -1 -29 -12 -78 -20 -98 -3 -8 -7 -17 -8 -20 -62 -179
-164 -300 -254 -300 -11 0 -22 -6 -24 -12 -4 -9 -6 -10 -6 -1 -1 12 -113 -19
-137 -38 -6 -5 -20 -7 -33 -4 -12 2 -19 0 -16 -6 4 -5 -3 -9 -14 -9 -12 0 -21
-4 -21 -10 0 -5 -3 -9 -8 -8 -12 3 -97 -25 -103 -35 -3 -5 -9 -9 -12 -9 -4 0
-16 -2 -26 -5 -11 -3 -24 -5 -28 -5 -4 -1 -13 -8 -20 -18 -7 -10 -22 -16 -38
-15 -14 2 -25 -1 -25 -6 0 -6 -4 -8 -8 -5 -20 12 -122 -130 -122 -168 0 -9 -5
-16 -12 -16 -6 0 -9 -3 -5 -6 3 -3 -3 -26 -14 -51 -10 -24 -21 -54 -23 -66 -3
-12 -7 -32 -10 -45 -3 -12 0 -22 6 -22 7 0 7 -4 -1 -13 -6 -8 -9 -16 -6 -18 2
-3 7 -20 10 -39 3 -19 10 -37 16 -38 5 -2 9 -9 9 -16 0 -10 42 -52 85 -84 13
-9 71 -9 81 0 4 4 13 3 20 -3 8 -7 14 -7 19 1 3 5 17 10 30 10 13 0 30 7 39
15 8 9 17 15 18 15 18 -7 88 46 88 67 0 7 4 13 9 13 8 0 12 11 26 63 2 4 4 10
5 15 1 4 2 10 1 15 0 4 3 7 7 7 4 0 8 8 9 19 2 31 42 105 63 118 16 11 21 9
35 -10 8 -12 18 -20 20 -18 3 2 16 0 28 -4 35 -11 41 -12 54 -3 6 5 14 5 18
-1 8 -14 116 -12 133 1 7 7 12 7 12 1 0 -11 29 -11 48 1 7 4 12 2 12 -4 0 -6
5 -8 12 -4 7 4 28 9 48 10 19 1 60 5 90 9 30 4 67 8 82 9 15 1 30 5 34 8 3 4
12 4 19 2 7 -3 16 -1 19 5 4 6 13 8 21 4 9 -3 21 0 29 6 7 6 16 8 19 4 4 -3 7
-1 7 5 0 6 13 18 30 27 24 12 69 61 138 150 5 6 19 34 32 63 36 80 45 71 51
-53 2 -33 -5 -75 -12 -75 -3 0 -5 -10 -4 -22 1 -13 -1 -27 -6 -33 -4 -5 -7
-13 -7 -18 0 -4 -4 -26 -8 -50 -4 -23 -7 -45 -6 -49 1 -5 -2 -8 -7 -8 -5 0 -7
-10 -3 -22 3 -11 1 -19 -4 -16 -5 3 -10 -10 -11 -29 -1 -19 -5 -43 -9 -52 -4
-9 -9 -25 -11 -36 -16 -83 -26 -115 -35 -115 -7 0 -6 -5 1 -13 8 -10 7 -19 -3
-32 -8 -11 -12 -25 -9 -32 3 -7 0 -13 -6 -13 -6 0 -11 -7 -11 -16 0 -17 -48
-105 -65 -116 -5 -4 -6 -8 -2 -8 5 0 -1 -14 -13 -30 -12 -17 -19 -30 -16 -30
3 0 -2 -8 -12 -19 -9 -10 -46 -66 -82 -124 -47 -76 -72 -107 -90 -112 -26 -6
-140 -33 -175 -40 -41 -9 -60 -14 -60 -15 0 -1 -13 -4 -30 -6 -16 -3 -32 -8
-35 -12 -6 -8 -38 -29 -60 -39 -21 -9 -39 -36 -33 -47 4 -5 1 -6 -5 -2 -7 4
-12 3 -12 -3 0 -6 -6 -8 -12 -6 -23 8 -98 -73 -98 -106 0 -8 5 -8 15 1 23 19
29 6 26 -55 l-2 -54 36 15 c20 8 53 14 73 13 20 -1 45 2 54 6 15 6 16 3 8 -24
-12 -41 6 -45 42 -7 25 26 36 30 71 28 133 -7 297 -2 297 9 0 3 10 5 23 4 12
-1 28 2 35 8 8 6 12 6 12 -3 0 -9 3 -10 13 -1 8 6 17 8 20 4 4 -3 7 -1 7 5 0
7 3 11 8 11 4 -1 27 2 52 7 25 4 54 7 65 7 37 -3 71 -9 80 -15 32 -17 127 9
135 37 2 6 5 18 8 28 2 9 7 17 11 17 4 0 6 27 5 60 -2 58 -1 61 37 92 33 27
51 54 54 78 0 3 10 20 23 38 13 17 20 32 16 32 -4 0 -1 6 8 13 8 6 31 41 49
77 19 36 37 67 42 68 4 2 7 9 7 16 0 7 13 40 30 72 16 32 30 65 30 72 0 6 5
12 12 12 6 0 8 3 5 7 -6 5 58 138 73 153 14 14 39 60 33 60 -5 0 -3 4 3 8 15
9 86 152 77 152 -5 0 -2 4 5 9 7 4 15 17 17 27 2 10 4 19 5 19 1 0 3 7 5 15 2
8 10 31 19 51 8 20 12 39 9 43 -4 3 -1 6 5 6 7 0 11 3 10 8 -1 4 4 25 10 47 6
22 13 51 16 65 2 14 5 25 6 25 2 0 8 37 14 85 3 19 5 35 6 35 3 0 11 41 12 63
0 12 4 22 8 22 4 0 6 12 4 27 -1 15 0 32 4 38 3 5 7 15 8 22 8 54 39 163 46
163 5 0 6 5 3 10 -13 21 26 21 60 1 l35 -20 -6 24 c-6 24 -5 25 21 15 38 -14
45 -13 45 11 0 20 2 20 55 -10 30 -17 63 -31 72 -31 11 0 14 3 7 8 -7 4 -12
19 -12 34 1 28 11 31 50 14 9 -4 22 -8 30 -10 7 -1 19 -5 26 -10 9 -5 20 -1
33 12 18 20 22 20 58 7 22 -7 42 -11 45 -8 3 4 6 2 6 -3 0 -6 17 -11 38 -12
20 -2 50 -5 66 -8 20 -3 32 1 42 13 11 16 16 16 34 5 18 -11 21 -11 15 0 -6
10 -5 10 5 1 16 -14 40 -6 34 12 -7 17 32 40 41 25 3 -5 15 -10 26 -10 10 0
19 -4 19 -9 0 -5 11 -8 24 -8 19 -1 25 6 30 33 4 18 12 34 19 37 11 3 45 -10
57 -24 7 -7 69 -35 98 -44 16 -5 32 0 55 18 18 13 44 27 60 31 15 3 27 13 27
20 0 12 36 30 80 41 18 5 46 20 51 28 4 5 42 13 85 17 44 5 91 13 107 19 15 6
27 8 27 4 0 -3 9 2 20 12 11 10 33 20 48 22 51 6 327 10 337 4 6 -3 21 -7 35
-9 46 -6 75 -10 78 -12 6 -6 96 -24 105 -22 4 1 7 -2 7 -6 0 -7 40 -13 108
-16 12 -1 22 -3 22 -6 0 -3 23 -6 52 -7 29 0 54 -6 56 -11 2 -7 12 -8 25 -3
12 5 42 9 67 10 25 0 63 3 85 6 22 3 54 7 72 9 18 1 40 9 49 17 15 12 17 12 9
0 -6 -11 -4 -13 11 -7 10 4 34 10 53 12 19 3 37 6 41 9 4 2 22 7 41 10 18 3
36 9 39 13 3 4 14 8 25 10 11 1 34 5 50 8 17 3 41 7 55 10 14 2 32 5 40 7 31
6 120 41 120 48 0 3 14 5 30 3 17 -2 30 1 30 6 0 5 10 6 23 3 44 -11 122 -8
136 5 12 11 15 11 22 0 5 -7 9 -9 9 -3 0 8 33 -32 36 -45 10 -35 18 -50 27
-50 6 0 8 -3 4 -6 -6 -7 50 -116 65 -125 5 -3 9 -8 9 -10 -2 -14 13 -49 21
-49 5 0 6 -4 3 -10 -3 -5 -2 -10 4 -10 6 0 13 -11 17 -25 3 -14 10 -25 15 -25
5 0 9 -5 9 -10 0 -6 9 -20 20 -32 11 -12 33 -49 49 -82 39 -78 45 -95 54 -153
1 -10 6 -24 11 -31 4 -7 9 -30 11 -51 1 -21 11 -53 21 -72 10 -19 17 -37 16
-41 -1 -5 3 -8 8 -8 6 0 10 -6 10 -14 0 -8 3 -16 8 -18 4 -1 45 -59 91 -128
46 -69 91 -135 100 -146 9 -12 23 -32 31 -44 8 -13 23 -32 33 -42 9 -10 17
-20 17 -23 0 -3 9 -15 20 -27 21 -23 24 -39 20 -133 -3 -93 -5 -114 -13 -121
-3 -4 -2 -14 3 -24 5 -10 6 -20 2 -24 -3 -4 -7 -21 -7 -39 -3 -70 -30 -167
-47 -167 -5 0 -8 -4 -8 -10 0 -5 -20 -29 -46 -52 -54 -52 -95 -103 -98 -125
-4 -25 -100 -70 -154 -72 -26 -1 -60 -4 -77 -7 -16 -2 -51 -6 -77 -9 -26 -2
-58 -11 -71 -20 -13 -8 -26 -13 -29 -10 -3 3 -38 -18 -79 -47 -53 -38 -80 -65
-94 -95 -11 -23 -30 -54 -43 -68 -13 -14 -27 -37 -32 -50 -8 -20 -7 -23 8 -18
9 3 23 11 31 17 10 8 18 4 33 -17 17 -23 23 -26 36 -15 11 10 16 10 19 1 2 -7
11 -9 19 -6 8 3 21 0 29 -7 8 -7 15 -8 15 -3 0 13 53 11 62 -2 5 -6 8 -6 8 0
0 6 11 11 25 11 14 1 22 -2 19 -8 -4 -6 1 -5 12 1 15 8 52 19 84 25 3 1 11 5
18 9 6 5 12 6 12 3 0 -3 15 1 34 9 33 14 41 14 84 -1 30 -11 146 -10 161 1 11
7 13 7 8 -2 -5 -8 1 -8 19 2 15 8 31 12 36 9 4 -3 8 0 8 7 0 7 3 10 6 7 3 -4
21 0 40 8 19 8 34 11 34 7 0 -4 5 -2 11 4 8 8 20 8 35 3 13 -5 24 -7 24 -4 0
4 6 1 14 -5 17 -14 64 -10 79 7 13 17 16 29 23 105 6 62 26 121 46 134 7 4 19
20 26 34 8 15 24 37 35 51 12 13 23 30 25 38 2 8 9 18 16 22 16 9 81 157 76
174 -1 4 3 10 8 13 6 4 13 20 16 36 2 17 5 32 6 35 1 3 2 8 1 13 0 4 4 7 9 7
6 0 10 8 10 19 0 10 11 48 24 85 14 37 24 68 25 69 0 1 2 9 5 17 40 115 54
160 49 160 -3 0 2 8 11 19 9 10 16 22 15 27 -1 5 3 21 9 35 6 15 12 35 14 45
2 11 7 22 11 25 4 3 9 21 11 41 2 19 6 40 10 47 4 6 9 31 11 54 2 23 5 44 6
47 2 7 2 9 -5 55 -6 34 -36 83 -58 93 -5 2 -8 8 -8 13 0 6 -9 19 -20 31 -11
12 -20 30 -20 40 0 10 -4 18 -8 18 -4 0 -9 11 -10 24 -1 19 8 30 46 52 26 15
49 31 52 35 19 27 50 9 185 -111 27 -24 58 -51 68 -60 56 -46 202 -191 203
-200 1 -5 3 -12 4 -15 1 -3 3 -8 4 -12 1 -5 7 -18 14 -30 7 -13 9 -23 5 -23
-4 0 -2 -5 5 -12 7 -7 12 -20 12 -29 0 -10 7 -24 15 -33 9 -8 16 -19 16 -23 0
-4 4 -26 10 -48 6 -22 11 -41 10 -43 -1 -1 5 -15 13 -31 9 -16 12 -31 9 -35
-4 -3 -1 -6 5 -6 7 0 12 -5 12 -11 0 -6 6 -17 13 -24 29 -33 37 -45 37 -53 0
-5 7 -15 15 -22 9 -7 13 -15 10 -18 -3 -3 -1 -10 4 -16 19 -23 25 -70 17 -126
-3 -19 -8 -48 -10 -65 -2 -16 -5 -30 -6 -30 -1 0 -3 -26 -5 -58 -3 -55 -17
-87 -37 -87 -5 0 -20 -8 -35 -17 -14 -10 -33 -18 -42 -20 -9 -1 -17 -7 -19
-12 -2 -6 -10 -11 -18 -11 -8 0 -14 -4 -14 -10 0 -5 -5 -10 -11 -10 -16 0 -89
-80 -89 -97 0 -8 -4 -12 -9 -9 -5 4 -14 -17 -20 -46 -7 -28 -16 -58 -23 -65
-7 -9 -7 -13 0 -13 6 0 9 -11 6 -24 -6 -35 33 -74 79 -79 20 -2 37 0 37 5 0 5
4 6 10 3 5 -3 19 -1 31 6 16 8 20 8 14 -1 -4 -6 8 -4 26 6 46 24 155 29 163 7
4 -8 13 -13 21 -9 8 3 15 1 15 -5 0 -6 7 -9 15 -5 8 3 15 0 15 -6 0 -7 4 -7
14 1 11 9 15 9 19 -1 4 -9 6 -10 6 -1 1 7 7 10 14 7 16 -6 123 50 159 84 15
14 40 57 55 96 33 84 61 136 75 136 6 0 8 6 5 13 -3 8 -2 20 3 27 4 7 2 30 -6
52 -7 22 -14 49 -13 61 0 12 -2 45 -4 72 -3 28 0 58 4 67 6 10 5 19 -1 23 -5
3 -10 11 -10 16 0 6 4 8 8 5 12 -7 9 38 -3 46 -7 5 -7 8 0 8 12 0 12 326 0
405 -4 28 -8 60 -8 73 -1 12 -3 22 -6 22 -4 0 -6 19 -7 43 0 52 -10 121 -23
165 -5 17 -8 32 -5 32 2 0 -3 11 -12 25 -9 14 -13 25 -9 25 4 0 2 7 -5 15 -7
8 -9 15 -5 15 8 0 -47 71 -85 111 -44 46 -115 131 -119 142 -2 7 -7 14 -10 17
-12 10 -53 72 -55 83 -8 36 -20 73 -26 82 -4 6 -11 26 -15 45 -4 19 -10 40
-14 45 -3 6 -6 12 -6 15 -8 51 -19 91 -25 95 -5 3 -7 12 -4 19 3 8 0 17 -5 21
-6 3 -9 11 -5 16 3 5 0 16 -6 24 -7 8 -10 15 -7 15 4 0 0 17 -6 38 -7 20 -13
52 -13 70 1 17 -3 32 -8 32 -5 0 -3 6 3 14 8 10 9 16 1 21 -6 3 -8 9 -6 13 2
4 7 63 11 132 4 69 9 157 11 195 3 39 6 97 7 130 2 33 6 65 9 70 4 6 3 17 -2
25 -5 9 -5 19 2 27 7 9 7 13 -1 13 -9 0 -9 5 -1 20 6 11 7 20 3 20 -10 0 -10
41 1 58 4 7 3 12 -1 12 -5 0 -9 17 -10 38 -1 34 -10 107 -13 107 -2 0 -11 38
-12 53 -1 6 -4 12 -8 12 -4 0 -7 6 -8 13 0 6 -3 19 -5 27 -2 8 -7 29 -12 45
-4 17 -12 36 -18 43 -5 6 -6 12 -2 12 4 0 0 11 -9 25 -9 14 -14 25 -12 25 3 0
-1 18 -9 39 -7 22 -11 42 -8 45 4 3 2 6 -3 6 -5 0 -9 19 -10 43 -1 52 -18 182
-24 182 -1 0 -3 15 -6 34 -2 19 -9 39 -14 46 -5 7 -8 14 -5 17 3 3 -1 23 -9
46 -8 22 -12 43 -9 46 12 11 22 6 28 -15 4 -11 9 -18 13 -15 6 6 58 -46 112
-113 19 -24 45 -54 58 -67 13 -13 20 -24 17 -24 -4 0 3 -12 14 -26 12 -15 21
-32 21 -38 0 -6 11 -23 25 -36 35 -34 57 -58 77 -83 10 -12 28 -35 40 -50 13
-15 58 -65 100 -110 167 -179 188 -203 188 -217 0 -6 5 -10 10 -10 6 0 16 -12
22 -27 17 -38 182 -259 229 -306 22 -21 39 -42 39 -46 0 -4 11 -21 25 -37 14
-16 25 -32 25 -36 0 -4 6 -13 13 -20 7 -7 41 -53 75 -102 35 -48 68 -93 73
-100 5 -6 16 -20 24 -31 13 -18 14 10 15 226 0 232 -1 247 -20 269 -11 13 -20
26 -20 29 0 3 -16 23 -35 43 -19 20 -35 40 -35 45 0 5 -8 16 -17 24 -10 9 -38
40 -63 69 -25 29 -54 63 -65 76 -11 12 -33 39 -50 60 -16 21 -37 45 -45 54 -8
9 -28 34 -45 55 -16 22 -34 45 -40 51 -5 7 -19 24 -30 40 -11 15 -26 33 -32
40 -7 7 -13 17 -13 23 0 6 -4 11 -10 11 -5 0 -10 5 -10 10 0 6 -8 18 -17 28
-10 10 -25 29 -33 41 -8 13 -25 35 -37 49 -13 15 -23 30 -23 33 0 3 -11 19
-25 35 -14 16 -29 34 -33 39 -69 92 -279 310 -371 385 -23 19 -51 42 -61 50
-10 8 -28 22 -40 30 -13 8 -35 25 -50 38 -15 12 -33 22 -39 22 -6 0 -11 5 -11
10 0 6 -6 10 -13 10 -7 0 -23 9 -35 20 -12 11 -23 20 -26 20 -14 0 -156 94
-192 127 -76 70 -194 151 -206 142 -2 -2 -13 3 -26 10 -12 7 -35 14 -50 16
-35 6 -67 13 -67 16 0 1 -9 3 -20 5 -11 1 -36 5 -55 8 -45 8 -157 19 -192 20
-16 1 -28 3 -28 6 0 3 -24 5 -53 6 -71 1 -153 10 -165 18 -6 3 -13 2 -17 -3
-3 -5 -15 -8 -28 -5 -20 4 -138 11 -313 18 -39 2 -77 7 -84 11 -9 6 -11 4 -5
-5 6 -9 4 -11 -6 -4 -18 11 -138 14 -145 3 -2 -5 -16 -4 -29 1 -16 6 -25 6
-25 0 0 -6 -9 -6 -24 0 -13 5 -27 5 -32 0 -8 -8 -91 -21 -151 -24 -13 0 -23
-3 -23 -6 0 -3 -10 -6 -22 -7 -37 -3 -130 -18 -183 -30 -16 -4 -41 -8 -55 -9
-14 -1 -25 -3 -25 -4 0 -2 -29 -9 -65 -15 -14 -2 -40 -9 -59 -14 -19 -6 -38
-8 -42 -5 -5 3 -9 1 -9 -4 0 -5 -6 -9 -12 -10 -17 -1 -55 -9 -93 -18 -16 -4
-38 -7 -47 -8 -10 0 -18 -4 -18 -8 0 -4 -9 -5 -20 -3 -11 2 -20 0 -20 -4 0 -5
-11 -7 -25 -6 -14 2 -25 0 -25 -3 0 -4 -19 -8 -43 -10 -40 -2 -82 -9 -82 -12
0 -1 -13 -3 -30 -5 -16 -2 -50 -6 -75 -9 -25 -3 -74 -8 -110 -12 -36 -4 -70
-10 -76 -15 -6 -5 -14 -6 -18 -2 -8 9 -46 12 -46 4 0 -8 -151 -14 -340 -14
-189 0 -350 6 -350 14 0 3 -15 5 -32 4 -18 -1 -37 1 -43 4 -5 3 -19 6 -30 7
-11 1 -34 7 -52 12 -17 6 -34 8 -37 4 -3 -3 -6 0 -6 6 0 7 -11 12 -23 12 -13
0 -27 3 -31 8 -4 4 -11 7 -14 7 -7 1 -77 23 -102 32 -8 3 -23 8 -32 9 -10 2
-23 5 -30 6 -7 2 -15 5 -18 8 -7 8 -123 41 -188 54 -12 3 -26 7 -30 10 -9 5
-59 17 -79 18 -7 1 -13 5 -13 10 0 5 -6 8 -12 7 -18 -3 -90 12 -112 23 -14 8
-17 7 -10 -4 6 -10 5 -11 -7 -1 -8 6 -28 14 -44 17 -17 2 -30 5 -30 6 0 2 -37
9 -62 12 -13 1 -23 6 -23 11 0 4 -4 6 -8 3 -4 -3 -26 -1 -48 4 -21 5 -57 12
-79 15 -22 3 -47 7 -55 8 -8 2 -20 6 -27 10 -6 4 -14 3 -18 -3 -4 -7 -14 -6
-28 2 -32 17 -45 18 -58 2z"/>
</g>
</svg>
