<svg xmlns="http://www.w3.org/2000/svg" xml:space="preserve" width="500" height="200" overflow="visible" version="1.0" viewBox="145.5 205.5 500 200"><g stroke="#595857" stroke-width="4"><path d="M348.15 259.254s-1.476 4.952.21 7.375 24.86 1.791 24.86 1.791l-11.27-10.22-13.8 1.054z"/><path d="M165.938 236.398s119.181 32.087 233.778 32.087c114.599 0 214.68-51.188 218.501-53.479 3.818-2.292 12.986 38.963.765 48.131-12.225 9.168-80.983 48.896-216.208 48.896-135.227 0-233.016-21.393-239.893-29.032-6.876-7.64-6.876-38.199 3.057-46.603z"/><path stroke-linejoin="round" d="M408.12 339.536s-22.156-6.111-28.268-21.393c-6.111-15.278 58.827-29.795 58.827-29.795l-6.112 31.324-24.447 19.864z"/><path d="M351.585 315.852s30.561 21.393 35.144 19.101c4.584-2.292 58.827-36.671 58.827-36.671l-45.84-33.616-50.423 38.2 2.292 12.986z"/><path d="M178.924 365.513s125.293-76.398 200.929-106.959c75.635-30.56 30.561 29.031 30.561 29.031s-78.69 38.199-110.779 57.299c-32.088 19.101-81.745 50.424-87.857 51.188-6.114.763-32.854-30.559-32.854-30.559z"/><path d="M412.073 240.503s-5.29-1.851-14.146 8.46c-8.856 10.313 15.07 8.197 15.07 8.197l-.924-16.657z"/><path stroke-linecap="round" stroke-linejoin="round" d="M388.256 241.746s94.734 49.659 127.587 60.354c32.851 10.696 113.832 46.604 116.889 55.771s-27.503 30.559-27.503 30.559-23.685-21.391-54.243-34.379c-30.56-12.986-83.273-34.379-112.306-48.131-29.031-13.751-89.388-47.367-89.388-47.367l38.964-16.807h0z"/><path stroke-linejoin="round" d="M411.94 240.982s-2.292 92.442-4.584 97.026c-2.293 4.584 42.783-12.988 43.546-18.336.765-5.349 6.877-50.423 2.293-55.007s-36.672-25.975-41.255-23.683z"/></g></svg>